<?xml version="1.0" standalone="no"?> <!DOCTYPE svg PUBLIC "-//W3C//DTD SVG 1.0//EN" "http://www.w3.org/TR/2001/REC-SVG-20010904/DTD/svg10.dtd" > <svg xmlns="http://www.w3.org/2000/svg" width="100%" height="100%">
<defs >
<font id="nhaasgrotesktxstd75bd" horiz-adv-x="588" ><font-face
    font-family="NeueHaasGroteskText Std"
    units-per-em="1000"
    panose-1="2 11 8 4 2 2 2 2 2 4"
    ascent="997"
    descent="-263"
    alphabetic="0" />
<missing-glyph horiz-adv-x="500" />
<glyph unicode=" " glyph-name="space" horiz-adv-x="241" />
<glyph unicode="!" glyph-name="exclam" horiz-adv-x="289" d="M104 259L63 558V744H226V558L185 259H104ZM61 0V164H228V0H61Z" />
<glyph unicode="&quot;" glyph-name="quotedbl" horiz-adv-x="451" d="M264 458V744H399V458H264ZM52 458V744H189V458H52Z" />
<glyph unicode="#" glyph-name="numbersign" horiz-adv-x="639" d="M72 422L93 540H190L218 713H318L290 540H405L433 713H532L504 540H604L584 422H485L466 302H565L545 185H447L418 0H318L348 185H233L204 0H104L133 185H34L55 302H152L171 422H72ZM271 422L252
302H367L386 422H271Z" />
<glyph unicode="$" glyph-name="dollar" horiz-adv-x="662" d="M304 -124V-7Q173 1 102 63T26 228H189Q201 130 304 117V301Q301 301 300 302Q247 316 219 324T152 350T95 388T62 441T48 517Q48 610 119 663T304 721V800H368V720Q478 712 542 658T612 512H458Q447
584 368 599V431L381 428Q441 413 479 399T555 361T610 299T628 211Q628 112 556 55T368 -7V-124H304ZM465 201Q465 234 443 251T368 284V117Q410 123 437 144T465 201ZM210 525Q210 495 231 479T304 447V602Q260 598 235 577T210 525Z" />
<glyph unicode="%" glyph-name="percent" horiz-adv-x="931" d="M300 312T218 312T84 369T31 520Q31 613 83 670T218 727Q301 727 352 671T404 520T352 369ZM224 0L612 712H706L318 0H224ZM712 -18Q630 -18 578 39T525 191Q525 284 578 341T712 399Q796 399 848
342T900 191T848 40T712 -18ZM218 398Q251 398 268 431T285 520Q285 575 268 609T218 643Q152 643 152 520Q152 398 218 398ZM713 69Q779 69 779 191Q779 246 762 280T713 315Q679 315 663 281T646 191Q646 69 713 69Z" />
<glyph unicode="&amp;" glyph-name="ampersand" horiz-adv-x="724" d="M295 -14Q171 -14 100 44T29 203Q29 283 73 333T196 421Q135 492 135 572Q135 650 191 699T340 749Q428 749 484 703T540 576Q540 512 504 470T402 394L431 358Q459 322 501 263Q521 308 529
371H666Q655 256 589 160L716 0H524L509 18L485 52Q395 -14 295 -14ZM297 113Q360 113 409 147L266 331Q191 283 191 206Q191 165 221 139T297 113ZM280 576Q280 530 337 476Q401 513 401 575Q401 603 384 621T341 639Q313 639 297 622T280 576Z" />
<glyph unicode="&apos;" glyph-name="quotesingle" horiz-adv-x="241" d="M52 458V744H189V458H52Z" />
<glyph unicode="(" glyph-name="parenleft" horiz-adv-x="366" d="M223 -141Q151 -53 106 63T61 313Q61 452 106 577T223 784H353Q222 575 222 313Q222 74 352 -141H223Z" />
<glyph unicode=")" glyph-name="parenright" horiz-adv-x="366" d="M14 -141Q145 76 145 313Q145 577 13 784H144Q215 702 260 577T306 313Q306 180 261 64T144 -141H14Z" />
<glyph unicode="*" glyph-name="asterisk" horiz-adv-x="474" d="M160 371L87 424L164 529L41 569L75 651L190 611V744H284V611L400 651L431 569L310 529L388 424L315 371L238 481L160 371Z" />
<glyph unicode="+" glyph-name="plus" horiz-adv-x="606" d="M53 279V405H236V598H370V405H553V279H370V84H236V279H53Z" />
<glyph unicode="," glyph-name="comma" horiz-adv-x="254" d="M45 -181V-111Q122 -91 122 -2V0H44V164H210V10Q210 -80 165 -127T45 -181Z" />
<glyph unicode="-" glyph-name="hyphen" horiz-adv-x="363" d="M40 197V333H323V197H40Z" />
<glyph unicode="." glyph-name="period" horiz-adv-x="254" d="M44 0V164H210V0H44Z" />
<glyph unicode="/" glyph-name="slash" horiz-adv-x="466" d="M-19 -141L315 784H458L124 -141H-19Z" />
<glyph unicode="0" glyph-name="zero" horiz-adv-x="692" d="M345 -17Q207 -17 122 84T36 355T121 625T346 727Q487 727 571 627T656 355Q656 185 571 84T345 -17ZM346 112Q488 112 488 355Q488 600 346 600Q274 600 239 535T204 355Q204 241 239 177T346 112Z" />
<glyph unicode="1" glyph-name="one" horiz-adv-x="437" d="M197 0V465H32V574Q114 576 166 612T231 719H360V0H197Z" />
<glyph unicode="2" glyph-name="two" horiz-adv-x="610" d="M31 0Q32 115 106 198Q129 224 161 251T218 295T282 341T338 380Q411 432 411 495Q411 541 385 568T313 595Q257 595 230 562Q197 526 197 458H42Q42 561 90 628Q158 727 318 727Q439 727 507 663T576
500Q576 395 487 320Q457 293 369 235T249 139V136H575V0H31Z" />
<glyph unicode="3" glyph-name="three" horiz-adv-x="635" d="M324 -17Q192 -17 111 45Q27 112 25 234H179Q183 178 217 144T318 109Q375 109 406 137T438 215Q438 315 307 315H264V429H303Q358 429 389 452T421 518Q421 558 393 582T319 606Q262 606 232 575T198
497H46Q48 597 121 662T322 727Q437 727 509 674T581 527Q581 425 460 384V382Q603 342 603 204Q603 96 524 40T324 -17Z" />
<glyph unicode="4" glyph-name="four" horiz-adv-x="654" d="M387 0V161H53V306L388 720H544V281H650V161H544V0H387ZM162 275Q224 281 264 281H387V453L392 562H390Q350 500 320 463L244 368Q231 352 211 330T176 292L162 277V275Z" />
<glyph unicode="5" glyph-name="five" horiz-adv-x="630" d="M313 -17Q191 -17 111 42T22 202H183Q191 162 224 138T307 114Q363 114 398 149T433 239Q433 295 398 328T310 362Q237 362 199 315H46L120 712H553V581H237L205 424H207Q260 482 354 482Q455 482 526
415T597 238Q597 123 518 53T313 -17Z" />
<glyph unicode="6" glyph-name="six" horiz-adv-x="653" d="M344 -17Q199 -17 119 81Q38 177 38 352Q36 536 121 635Q199 727 343 727Q450 727 516 676T600 543H444Q424 610 346 610Q204 610 192 398H194Q258 487 368 487Q472 487 546 416T621 236Q621 124 543
54T344 -17ZM338 105Q392 105 429 142T466 234Q466 291 430 328T338 365Q278 365 241 329T204 235T242 142T338 105Z" />
<glyph unicode="7" glyph-name="seven" horiz-adv-x="576" d="M125 0Q133 179 211 333T392 578V580Q301 574 220 574H28V712H551V587Q445 483 374 330T297 0H125Z" />
<glyph unicode="8" glyph-name="eight" horiz-adv-x="647" d="M455 -17T325 -17T113 42T30 203Q30 267 66 314T171 382V385Q60 424 60 530Q60 619 132 673T324 727Q445 727 515 675T586 533Q586 428 476 389V386Q545 367 581 320T618 207Q618 103 537 43ZM323
432Q375 432 403 456T432 522Q432 564 404 589T323 614Q272 614 243 589T214 522Q214 481 243 457T323 432ZM325 105Q383 105 418 134T453 213Q453 265 419 295T325 325T230 295T195 213Q195 163 230 134T325 105Z" />
<glyph unicode="9" glyph-name="nine" horiz-adv-x="654" d="M320 -17Q209 -17 138 36T55 170H211Q219 142 245 122T316 101Q389 101 425 159Q456 208 462 308H460Q394 224 290 224Q181 224 107 294T33 475T112 656T315 727T515 658Q615 568 615 360Q615 158 532
68Q456 -17 320 -17ZM318 345Q376 345 413 381T451 475T414 569T319 606Q260 606 224 569T187 476Q187 419 223 382T318 345Z" />
<glyph unicode=":" glyph-name="colon" horiz-adv-x="261" d="M47 321V485H213V321H47ZM47 0V164H213V0H47Z" />
<glyph unicode=";" glyph-name="semicolon" horiz-adv-x="261" d="M47 321V485H213V321H47ZM48 -181V-111Q125 -91 125 -2V0H47V164H213V10Q213 -80 168 -127T48 -181Z" />
<glyph unicode="&lt;" glyph-name="less" horiz-adv-x="541" d="M481 70L55 250V393L481 573V434L311 368Q286 358 250 347T190 328L167 321V319Q255 296 311 276L481 213V70Z" />
<glyph unicode="=" glyph-name="equal" horiz-adv-x="603" d="M61 368V491H547V368H61ZM61 154V277H547V154H61Z" />
<glyph unicode="&gt;" glyph-name="greater" horiz-adv-x="541" d="M60 573L486 393V250L60 70V208L231 275L374 322V324Q287 347 231 367L60 430V573Z" />
<glyph unicode="?" glyph-name="question" horiz-adv-x="580" d="M189 0V164H355V0H189ZM204 259Q204 321 221 357T280 429Q291 438 314 455T351 484T375 513T386 552Q386 586 360 606T291 627Q241 627 210 596T177 518H21Q24 622 97 689T297 757Q413 757 482
702T551 556Q551 463 477 404Q454 386 416 360T365 321Q345 299 344 259H204Z" />
<glyph unicode="@" glyph-name="at" horiz-adv-x="949" d="M418 98Q345 98 302 150T258 290Q258 396 311 462T452 529Q535 529 564 452H565L573 518H706L673 250Q669 212 678 195T714 178Q755 178 785 218T816 351Q816 500 729 578T490 656Q340 656 241 559T141
295Q141 150 226 61T465 -29Q558 -29 651 9L682 -68Q588 -115 464 -115Q279 -115 160 -2T40 294Q40 399 77 485T178 628T321 714T489 744Q669 744 790 639T911 350Q911 226 853 159T706 92Q581 92 556 182H554Q510 98 418 98ZM461 200Q503 200 527 237T552 335Q552
427 485 427Q444 427 421 390T398 293Q398 200 461 200Z" />
<glyph unicode="A" glyph-name="A" horiz-adv-x="736" d="M10 0L278 744H455L724 0H544L497 142H227L181 0H10ZM313 403L267 264H458L413 403Q399 448 387 497T370 574L365 601H363Q337 476 313 403Z" />
<glyph unicode="B" glyph-name="B" horiz-adv-x="710" d="M63 0V744H415Q530 744 589 693Q652 638 652 551Q652 440 532 402V398Q604 381 642 334T681 217Q681 112 608 55Q541 0 424 0H63ZM232 445H391Q436 445 462 466T488 528T463 590T393 612H232V445ZM232
134H406Q456 134 485 161Q512 186 512 229Q512 276 482 301T403 326H232V134Z" />
<glyph unicode="C" glyph-name="C" horiz-adv-x="749" d="M397 -17Q235 -17 134 92T32 369Q32 538 132 647T397 757Q523 757 601 699Q702 625 716 493H546Q538 547 498 581T396 615Q304 615 255 547T206 369Q206 261 258 193T397 124Q463 124 504 162T552 260H723Q715
148 633 67Q547 -17 397 -17Z" />
<glyph unicode="D" glyph-name="D" horiz-adv-x="748" d="M65 0V744H375Q531 744 624 641T718 367Q718 198 626 99T365 0H65ZM236 144H352Q448 144 496 201T544 367T496 537T355 600H236V144Z" />
<glyph unicode="E" glyph-name="E" horiz-adv-x="670" d="M63 0V744H621V602H233V454H569V319H233V146H628V0H63Z" />
<glyph unicode="F" glyph-name="F" horiz-adv-x="640" d="M63 0V744H609V599H233V437H547V298H233V0H63Z" />
<glyph unicode="G" glyph-name="G" horiz-adv-x="784" d="M617 0L603 100H600Q537 -17 386 -17Q231 -17 133 87Q34 194 34 369Q34 464 67 544T163 677Q257 757 398 757Q535 757 618 691T723 515H553Q538 560 501 588T403 616Q308 616 258 548T207 369Q207 260
261 191T405 122Q481 122 527 165T574 268V271H424V398H735V0H617Z" />
<glyph unicode="H" glyph-name="H" horiz-adv-x="747" d="M63 0V744H233V457H514V744H684V0H514V315H233V0H63Z" />
<glyph unicode="I" glyph-name="I" horiz-adv-x="298" d="M63 0V744H234V0H63Z" />
<glyph unicode="J" glyph-name="J" horiz-adv-x="579" d="M280 -14Q155 -14 90 49T25 225V282H182V229Q182 127 270 127Q353 127 353 221V744H524V217Q524 123 477 67Q412 -14 280 -14Z" />
<glyph unicode="K" glyph-name="K" horiz-adv-x="736" d="M63 0V744H233V622Q233 566 227 446L505 744H709L422 445L727 0H528L301 337L233 266V0H63Z" />
<glyph unicode="L" glyph-name="L" horiz-adv-x="604" d="M63 0V744H233V146H576V0H63Z" />
<glyph unicode="M" glyph-name="M" horiz-adv-x="884" d="M63 0V744H292L385 434Q397 393 411 327T433 214L441 169H444Q472 341 499 434L590 744H822V0H665V333Q665 375 668 442T674 555L677 601H675Q643 442 617 354L511 0H371L264 354Q252 393 238 455T214
559L206 601H204Q216 427 216 333V0H63Z" />
<glyph unicode="N" glyph-name="N" horiz-adv-x="753" d="M63 0V744H237L433 421Q453 388 478 339T520 258L535 225H537Q528 358 528 443V744H691V0H516L322 319Q302 352 276 402T234 485L219 518H217Q226 384 226 299V0H63Z" />
<glyph unicode="O" glyph-name="O" horiz-adv-x="799" d="M400 -18Q233 -18 133 91T32 369Q32 539 132 648T400 757Q566 757 666 648T767 369Q767 200 667 91T400 -18ZM401 122Q494 122 543 190T593 369Q593 480 544 549T401 619T257 549T206 369Q206 260 256
191T401 122Z" />
<glyph unicode="P" glyph-name="P" horiz-adv-x="686" d="M63 0V744H394Q524 744 593 675Q664 604 664 497T596 324T414 258H236V0H63ZM236 599V393H381Q434 393 463 421T492 497Q492 546 464 572T382 599H236Z" />
<glyph unicode="Q" glyph-name="Q" horiz-adv-x="798" d="M692 -63L590 31Q506 -18 399 -18Q232 -18 132 91T32 369Q32 539 132 648T399 757T665 648T765 369Q765 207 674 101L766 17L692 -63ZM400 119Q444 119 479 134L389 217L463 297L558 209Q592 271 592 369Q592
480 543 549T400 619T257 549T206 369T256 189T400 119Z" />
<glyph unicode="R" glyph-name="R" horiz-adv-x="715" d="M63 0V744H417Q529 744 600 687T671 531Q671 395 533 350V347Q588 330 615 297T650 203Q655 168 658 114T666 36T682 8V0H514Q508 3 505 13T499 42T495 78T491 124T487 172Q480 229 450 256T359 284H233V0H63ZM233
609V410H384Q440 410 470 436T501 508Q501 555 473 582T389 609H233Z" />
<glyph unicode="S" glyph-name="S" horiz-adv-x="690" d="M355 -18Q205 -18 117 48T25 235H197Q210 118 355 118Q409 118 446 140T483 205Q483 224 475 238T456 262T418 280T373 294T312 309Q260 321 228 330T158 357T99 397T64 453T49 533Q49 644 129 700T339
757Q465 757 543 700T630 535H463Q456 579 423 603T334 627Q281 627 249 606T217 550Q217 508 273 486Q301 474 398 453Q456 440 496 426T575 386T635 319T655 222Q655 110 571 46T355 -18Z" />
<glyph unicode="T" glyph-name="T" horiz-adv-x="668" d="M27 599V744H641V599H419V0H248V599H27Z" />
<glyph unicode="U" glyph-name="U" horiz-adv-x="724" d="M364 -14Q213 -14 134 56T55 259V744H225V255Q225 124 364 124Q429 124 464 160T499 258V744H670V259Q670 128 591 57T364 -14Z" />
<glyph unicode="V" glyph-name="V" horiz-adv-x="690" d="M255 0L9 744H186L296 386Q307 350 320 295T340 204L347 167H349Q375 304 399 386L508 744H680L434 0H255Z" />
<glyph unicode="W" glyph-name="W" horiz-adv-x="999" d="M211 0L9 744H182L253 453Q265 405 275 334T291 216L296 169H298Q325 355 347 459L413 744H574L640 460Q650 414 662 341T681 218L688 169H690Q711 348 737 454L806 744H979L775 0H608L536 312Q527 353
517 417T500 525L495 569H493Q472 404 452 312L379 0H211Z" />
<glyph unicode="X" glyph-name="X" horiz-adv-x="730" d="M15 0L265 389L36 744H231L291 643Q306 618 325 581T355 518L366 493H368Q410 586 444 643L505 744H691L466 390L714 0H512L437 131Q422 157 404 195T375 258L364 283H362Q321 190 286 131L209 0H15Z" />
<glyph unicode="Y" glyph-name="Y" horiz-adv-x="702" d="M266 0V278L11 744H198L278 588Q293 558 311 514T341 440L352 411H354Q396 520 430 588L511 744H691L436 280V0H266Z" />
<glyph unicode="Z" glyph-name="Z" horiz-adv-x="688" d="M36 0V138L311 472Q331 496 362 528T414 582L434 602V605Q335 600 277 600H63V744H635V610L370 286Q348 260 315 224T258 166L235 143V140Q339 146 401 146H649V0H36Z" />
<glyph unicode="[" glyph-name="bracketleft" horiz-adv-x="427" d="M71 -141V784H383V662H221V-20H383V-141H71Z" />
<glyph unicode="\" glyph-name="backslash" horiz-adv-x="466" d="M485 -141H342L9 784H152L485 -141Z" />
<glyph unicode="]" glyph-name="bracketright" horiz-adv-x="427" d="M43 -141V-20H205V662H43V784H356V-141H43Z" />
<glyph unicode="^" glyph-name="asciicircum" horiz-adv-x="503" d="M14 438L189 744H314L489 438H343L252 601H250L158 438H14Z" />
<glyph unicode="_" glyph-name="underscore" horiz-adv-x="445" d="M-2 -176V-77H447V-176H-2Z" />
<glyph unicode="`" glyph-name="grave" horiz-adv-x="538" d="M225 612L105 773H288L341 612H225Z" />
<glyph unicode="a" glyph-name="a" horiz-adv-x="580" d="M393 0Q379 20 375 65H373Q317 -14 212 -14Q131 -14 81 28T30 147Q30 228 84 262T239 309Q313 319 343 333T373 377Q373 407 353 424T294 441Q208 441 201 371H56Q59 445 119 496T292 547Q391 547 445
515Q526 468 526 356V83Q526 22 546 9V0H393ZM261 89Q313 89 345 118T377 191V260Q353 246 285 230Q230 218 207 202T183 152Q183 89 261 89Z" />
<glyph unicode="b" glyph-name="b" horiz-adv-x="621" d="M367 -17Q250 -17 205 78H203V0H52V744H209V581Q209 538 204 458H207Q266 547 366 547Q469 547 532 468T595 266Q595 135 533 59T367 -17ZM325 109Q379 109 407 151T435 267T407 384T324 428Q265 428 235
384T204 266Q204 195 236 152T325 109Z" />
<glyph unicode="c" glyph-name="c" horiz-adv-x="577" d="M307 -17Q182 -17 105 63T27 265Q27 387 103 467T303 547Q407 547 472 493T552 350H400Q382 430 305 430Q247 430 217 386T186 265Q186 190 216 146T305 102Q348 102 374 127T405 198H556Q552 105 484
44T307 -17Z" />
<glyph unicode="d" glyph-name="d" horiz-adv-x="622" d="M255 -17Q151 -17 89 59T27 266Q27 389 90 468T257 547Q357 547 415 458H417Q413 524 413 581V744H570V0H419V78H417Q372 -17 255 -17ZM297 109Q353 109 385 152T418 266Q418 339 388 383T298 428Q244
428 216 385T187 267T215 151T297 109Z" />
<glyph unicode="e" glyph-name="e" horiz-adv-x="596" d="M308 -16Q180 -16 104 63T27 265Q27 386 103 466T300 547Q409 547 483 479Q571 394 569 226H181Q189 165 221 132T310 98Q380 98 407 150H559Q538 76 473 30T308 -16ZM300 436Q198 436 182 317H409Q405
372 376 404T300 436Z" />
<glyph unicode="f" glyph-name="f" horiz-adv-x="395" d="M20 430V532H100V577Q100 661 145 702Q194 746 303 744Q339 744 368 740V628Q304 630 281 620T257 566V532H368V430H257V0H100V430H20Z" />
<glyph unicode="g" glyph-name="g" horiz-adv-x="613" d="M299 -185Q190 -185 123 -142T43 -19H196Q213 -73 297 -73Q352 -73 380 -46T408 30V41Q408 84 411 111H407Q360 33 263 33T99 101T31 285T93 474T255 547Q366 547 408 464H410V532H560V47Q560 -66 491
-127Q424 -185 299 -185ZM298 151Q355 151 384 189T413 290Q413 352 383 390T297 428Q245 428 215 391T185 289Q185 226 215 189T298 151Z" />
<glyph unicode="h" glyph-name="h" horiz-adv-x="604" d="M209 539Q209 491 208 456H211Q262 547 371 547Q458 547 507 494T556 350V0H400V320Q400 364 377 390T311 417Q266 417 238 384T209 300V0H52V744H209V539Z" />
<glyph unicode="i" glyph-name="i" horiz-adv-x="261" d="M51 607V744H210V607H51ZM52 0V532H209V0H52Z" />
<glyph unicode="j" glyph-name="j" horiz-adv-x="261" d="M52 -181Q1 -181 -37 -173V-62H-31Q-5 -62 6 -61Q30 -59 41 -47T52 -7V532H209V-13Q209 -103 169 -141Q129 -181 52 -181ZM51 607V744H210V607H51Z" />
<glyph unicode="k" glyph-name="k" horiz-adv-x="590" d="M399 0L260 232L207 177V0H52V744H207V512Q207 426 202 341L377 532H559L369 335L581 0H399Z" />
<glyph unicode="l" glyph-name="l" horiz-adv-x="265" d="M54 0V744H212V0H54Z" />
<glyph unicode="m" glyph-name="m" horiz-adv-x="910" d="M52 0V532H203V449H206Q259 547 366 547Q471 547 512 446H514Q577 547 683 547Q770 547 816 495T862 351V0H706V325Q706 369 686 393T627 418Q585 418 561 386T536 303V0H379V325Q379 418 301 418Q260
418 235 386T209 303V0H52Z" />
<glyph unicode="n" glyph-name="n" horiz-adv-x="604" d="M204 532V451H207Q256 547 371 547Q458 547 507 494T556 350V0H400V320Q400 364 377 390T311 417Q266 417 238 384T209 300V0H52V532H204Z" />
<glyph unicode="o" glyph-name="o" horiz-adv-x="616" d="M309 -17Q183 -17 105 63T27 265Q27 387 105 467T309 547Q434 547 511 467T589 265Q589 144 512 64T309 -17ZM308 97Q366 97 398 143T430 265Q430 342 398 388T308 435Q249 435 218 389T186 265Q186 188
217 143T308 97Z" />
<glyph unicode="p" glyph-name="p" horiz-adv-x="624" d="M52 -177V532H203V456H206Q260 547 368 547Q472 547 534 469T597 266Q597 136 534 60T363 -17Q255 -17 206 66H204Q209 16 209 -50V-177H52ZM326 105Q379 105 408 147T438 261Q438 335 409 378T324 422Q266
422 235 377T204 261Q204 191 236 148T326 105Z" />
<glyph unicode="q" glyph-name="q" horiz-adv-x="624" d="M416 -177V-50Q416 22 420 66H418Q367 -17 262 -17Q155 -17 92 59T28 266Q28 390 91 468T259 547Q366 547 419 457H422V532H572V-177H416ZM298 105Q357 105 389 148T421 261Q421 332 390 377T301 422Q244
422 216 379T187 261Q187 189 216 147T298 105Z" />
<glyph unicode="r" glyph-name="r" horiz-adv-x="410" d="M203 532V437H206Q254 541 354 541Q378 541 387 537V400H383Q366 403 350 403Q285 404 247 364T209 247V0H52V532H203Z" />
<glyph unicode="s" glyph-name="s" horiz-adv-x="539" d="M273 -17Q159 -17 92 32T18 164H166Q180 86 274 86Q316 86 339 102T362 147Q362 163 354 173T328 191T293 202T247 211Q232 214 225 215Q190 222 168 227T118 245T73 274T46 317T34 381Q34 460 97 503T258
547Q365 547 424 505T494 390H348Q333 447 258 447Q222 447 201 433T179 393T206 358T290 337Q303 335 310 334Q355 326 383 318T445 291T496 239T513 158Q513 74 447 29T273 -17Z" />
<glyph unicode="t" glyph-name="t" horiz-adv-x="389" d="M21 432V532H101V702H255V532H359V432H255V168Q255 139 269 128T314 117Q330 117 350 119H358V2Q313 -6 267 -6Q187 -6 144 25T101 134V432H21Z" />
<glyph unicode="u" glyph-name="u" horiz-adv-x="599" d="M547 0H398V76H395Q338 -15 235 -15Q146 -15 97 38T48 180V532H205V210Q205 117 290 117Q337 117 364 149T392 231V532H547V0Z" />
<glyph unicode="v" glyph-name="v" horiz-adv-x="549" d="M189 0L5 532H167L232 318Q242 286 252 240T268 162L274 132H277Q297 247 319 318L386 532H544L358 0H189Z" />
<glyph unicode="w" glyph-name="w" horiz-adv-x="822" d="M171 0L7 532H167L223 325Q231 297 238 256T250 187L254 160H256Q273 263 290 327L344 532H477L533 327Q541 299 549 257T563 187L568 159H570Q584 261 602 325L659 532H814L649 0H501L445 217Q438 244
430 284T416 352L412 380H410Q391 278 375 217L317 0H171Z" />
<glyph unicode="x" glyph-name="x" horiz-adv-x="593" d="M17 0L204 279L35 532H214L245 482Q257 462 271 434T293 388L301 369H303Q333 438 357 482L386 532H552L389 282L576 0H394L353 68L295 186H293Q259 113 231 68L188 0H17Z" />
<glyph unicode="y" glyph-name="y" horiz-adv-x="557" d="M168 -178Q69 -178 63 -176V-53H71Q73 -54 122 -54Q194 -54 198 0Q198 36 170 107L5 532H170L238 328Q249 296 260 250T276 173L282 143H284Q308 257 331 328L396 532H552L362 -13Q330 -105 287 -141T168 -178Z" />
<glyph unicode="z" glyph-name="z" horiz-adv-x="538" d="M36 0V117L226 332Q240 348 262 368T300 402L315 415V418Q245 410 200 410H59V532H491V419L308 211Q292 194 267 171T224 134L207 119V116Q283 123 331 123H505V0H36Z" />
<glyph unicode="{" glyph-name="braceleft" horiz-adv-x="424" d="M355 -141Q234 -141 180 -98T126 56V188Q126 227 105 245T30 265V382Q82 384 104 402T126 459V589Q126 700 180 742T355 784H383V662H361Q314 662 295 648T276 589V440Q276 391 256 365T192 325V322Q236
309 256 283T276 208V55Q276 12 295 -4T361 -20H383V-141H355Z" />
<glyph unicode="|" glyph-name="bar" horiz-adv-x="242" d="M71 -141V784H171V-141H71Z" />
<glyph unicode="}" glyph-name="braceright" horiz-adv-x="424" d="M43 -141V-20H64Q110 -20 129 -5T149 55V207Q149 256 169 282T233 321V324Q189 338 169 364T149 439V589Q149 633 130 647T64 662H43V784H70Q191 784 245 742T299 588V458Q299 420 321 402T394
381V265Q342 263 321 245T299 188V56Q299 -55 245 -98T70 -141H43Z" />
<glyph unicode="~" glyph-name="asciitilde" horiz-adv-x="471" d="M323 257Q288 257 238 278Q190 300 174 300Q141 300 136 254H35Q36 339 70 383T160 427Q197 427 243 405T304 383Q323 383 331 393T341 427H441Q441 347 411 302T323 257Z" />
</font>
</defs>
</svg>
